<?xml version="1.0" encoding="utf-8"?>
<svg version="1.1" xmlns:xlink="http://www.w3.org/1999/xlink" width="20px" height="20px" xmlns="http://www.w3.org/2000/svg">
  <g transform="matrix(1 0 0 1 -320 -25 )">
    <path d="M 19.92578125 10  C 19.92578125 15.4818576054687  15.4818576054687 19.92578125  10 19.92578125  C 4.51814239453125 19.92578125  0.07421875 15.4818576054687  0.07421875 10  C 0.07421875 4.51814239453125  4.51814239453125 0.07421875  10 0.07421875  C 15.4818576054687 0.07421875  19.92578125 4.51814239453125  19.92578125 10  Z M 1.728515625 10  C 1.728515625 14.5682146855469  5.43178531445312 18.271484375  10 18.271484375  C 14.5682146855469 18.271484375  18.271484375 14.5682146855469  18.271484375 10  C 18.271484375 5.43178531445312  14.5682146855469 1.728515625  10 1.728515625  C 5.43178531445312 1.728515625  1.728515625 5.43178531445312  1.728515625 10  Z " fill-rule="nonzero" fill="#b9bec3" stroke="none" transform="matrix(1 0 0 1 320 25 )" />
  </g>
</svg>