<?xml version="1.0" encoding="utf-8"?>
<svg version="1.1" xmlns:xlink="http://www.w3.org/1999/xlink" width="20px" height="20px" xmlns="http://www.w3.org/2000/svg">
  <g transform="matrix(1 0 0 1 -320 -25 )">
    <path d="M 19.979417533907 9.95957200230013  C 19.979417533907 4.46281283708756  15.5238336873414 0.00953759735881925  10.0293831289657 0.0095375973588198  C 4.5349325705901 0.0095375973588198  0.0793487240244299 4.46281285969226  0.0793487012214476 9.95957200230013  C 0.0793486784184654 15.456331144908  4.53262396355489 19.9096064072414  10.0293831289657 19.9096064298461  C 15.5261422943766 19.9096064524508  19.979417533907 15.4563311675127  19.979417533907 9.95957200230013  Z M 16.0432670318449 6.33277292730806  C 16.39648171875 6.67906183871351  16.39648171875 7.24697563451777  16.0478842231123 7.59557310774905  L 9.37143420605965 14.2720231246034  C 9.19598116612468 14.4474761645384  8.96743048362151 14.535202684605  8.73887982372303 14.535202684605  C 8.51032914121986 14.535202684605  8.28177848132138 14.4474761645384  8.10632541898001 14.2720231246034  L 4.83043242405616 10.9984387141101  C 4.47952634398794 10.6498412182741  4.47952634398794 10.0819274224699  4.83043242405616 9.73332992663388  C 5.18133850412437 9.38242384656567  5.74694371569638 9.38242384656567  6.09554121113579 9.73332992663388  L 8.73657121668782 12.3743599549889  L 14.7781582445669 6.33277292730806  C 15.1290643246352 5.98186684723985  15.6946695362072 5.98186684723985  16.0432670318449 6.33277292730806  Z " fill-rule="nonzero" fill="#ff4d4c" stroke="none" transform="matrix(1 0 0 1 320 25 )" />
  </g>
</svg>